<?xml version="1.0" encoding="UTF-8" standalone="no"?>
<!DOCTYPE svg PUBLIC "-//W3C//DTD SVG 1.1//EN"
 "http://www.w3.org/Graphics/SVG/1.1/DTD/svg11.dtd">
<!-- Generated by graphviz version 2.42.4 (0)
 -->
<!-- Title: UseCase Pages: 1 -->
<svg width="871pt" height="902pt"
 viewBox="0.00 0.00 871.34 901.71" xmlns="http://www.w3.org/2000/svg" xmlns:xlink="http://www.w3.org/1999/xlink">
<g id="graph0" class="graph" transform="scale(1 1) rotate(0) translate(4 897.71)">
<title>UseCase</title>
<polygon fill="white" stroke="transparent" points="-4,4 -4,-897.71 867.34,-897.71 867.34,4 -4,4"/>
<g id="clust1" class="cluster">
<title>cluster_system</title>
<path fill="white" stroke="#94a3b8" d="M213,-178.71C213,-178.71 843.34,-178.71 843.34,-178.71 849.34,-178.71 855.34,-184.71 855.34,-190.71 855.34,-190.71 855.34,-873.71 855.34,-873.71 855.34,-879.71 849.34,-885.71 843.34,-885.71 843.34,-885.71 213,-885.71 213,-885.71 207,-885.71 201,-879.71 201,-873.71 201,-873.71 201,-190.71 201,-190.71 201,-184.71 207,-178.71 213,-178.71"/>
<text text-anchor="middle" x="528.17" y="-870.51" font-family="Times,serif" font-size="14.00">Sistem Informasi UMKM Multi&#45;UMKM</text>
</g>
<!-- uc_login -->
<g id="node1" class="node">
<title>uc_login</title>
<ellipse fill="none" stroke="black" cx="346.18" cy="-728.71" rx="74.99" ry="18"/>
<text text-anchor="middle" x="346.18" y="-725.01" font-family="Helvetica,sans-Serif" font-size="14.00">Login / Logout</text>
</g>
<!-- uc_kelola_umkm -->
<g id="node2" class="node">
<title>uc_kelola_umkm</title>
<ellipse fill="none" stroke="black" cx="346.18" cy="-674.71" rx="92.08" ry="18"/>
<text text-anchor="middle" x="346.18" y="-671.01" font-family="Helvetica,sans-Serif" font-size="14.00">Kelola Data UMKM</text>
</g>
<!-- uc_kelola_user -->
<g id="node3" class="node">
<title>uc_kelola_user</title>
<ellipse fill="none" stroke="black" cx="346.18" cy="-458.71" rx="121.58" ry="18"/>
<text text-anchor="middle" x="346.18" y="-455.01" font-family="Helvetica,sans-Serif" font-size="14.00">Kelola User &amp; Hak Akses</text>
</g>
<!-- uc_kelola_master -->
<g id="node4" class="node">
<title>uc_kelola_master</title>
<ellipse fill="none" stroke="black" cx="346.18" cy="-277.71" rx="137.36" ry="37.45"/>
<text text-anchor="middle" x="346.18" y="-289.01" font-family="Helvetica,sans-Serif" font-size="14.00">Kelola Master Data</text>
<text text-anchor="middle" x="346.18" y="-274.01" font-family="Helvetica,sans-Serif" font-size="14.00">Produk, Kategori, Satuan,</text>
<text text-anchor="middle" x="346.18" y="-259.01" font-family="Helvetica,sans-Serif" font-size="14.00">Pelanggan, Supplier</text>
</g>
<!-- uc_penjualan -->
<g id="node5" class="node">
<title>uc_penjualan</title>
<ellipse fill="none" stroke="black" cx="346.18" cy="-620.71" rx="81.49" ry="18"/>
<text text-anchor="middle" x="346.18" y="-617.01" font-family="Helvetica,sans-Serif" font-size="14.00">Input Penjualan</text>
</g>
<!-- uc_piutang -->
<g id="node7" class="node">
<title>uc_piutang</title>
<ellipse fill="none" stroke="black" cx="723.85" cy="-281.71" rx="74.19" ry="18"/>
<text text-anchor="middle" x="723.85" y="-278.01" font-family="Helvetica,sans-Serif" font-size="14.00">Kelola Piutang</text>
</g>
<!-- uc_penjualan&#45;&gt;uc_piutang -->
<g id="edge28" class="edge">
<title>uc_penjualan&#45;&gt;uc_piutang</title>
<path fill="none" stroke="black" stroke-dasharray="5,2" d="M427.73,-620.98C448.43,-617.08 468.91,-609.07 483.36,-593.71 524.23,-550.26 472.09,-512.69 501.36,-460.71 543.23,-386.34 629.35,-330.87 681,-302.63"/>
<polygon fill="black" stroke="black" points="682.76,-305.66 689.92,-297.84 679.45,-299.49 682.76,-305.66"/>
<text text-anchor="middle" x="541.86" y="-464.51" font-family="Helvetica,sans-Serif" font-size="14.00">jika kredit</text>
</g>
<!-- uc_kas -->
<g id="node11" class="node">
<title>uc_kas</title>
<ellipse fill="none" stroke="black" cx="723.85" cy="-620.71" rx="119.68" ry="18"/>
<text text-anchor="middle" x="723.85" y="-617.01" font-family="Helvetica,sans-Serif" font-size="14.00">Kelola Kas Masuk/Keluar</text>
</g>
<!-- uc_penjualan&#45;&gt;uc_kas -->
<g id="edge30" class="edge">
<title>uc_penjualan&#45;&gt;uc_kas</title>
<path fill="none" stroke="black" stroke-dasharray="5,2" d="M427.77,-620.71C476.17,-620.71 538.87,-620.71 594.02,-620.71"/>
<polygon fill="black" stroke="black" points="594.22,-624.21 604.22,-620.71 594.22,-617.21 594.22,-624.21"/>
<text text-anchor="middle" x="541.86" y="-624.51" font-family="Helvetica,sans-Serif" font-size="14.00">jika tunai</text>
</g>
<!-- uc_stok -->
<g id="node12" class="node">
<title>uc_stok</title>
<ellipse fill="none" stroke="black" cx="723.85" cy="-755.71" rx="123.48" ry="18"/>
<text text-anchor="middle" x="723.85" y="-752.01" font-family="Helvetica,sans-Serif" font-size="14.00">Pantau &amp; Sesuaikan Stok</text>
</g>
<!-- uc_penjualan&#45;&gt;uc_stok -->
<g id="edge32" class="edge">
<title>uc_penjualan&#45;&gt;uc_stok</title>
<path fill="none" stroke="black" stroke-dasharray="5,2" d="M413.75,-630.77C436.15,-634.98 461.09,-640.58 483.36,-647.71 555.44,-670.77 634.7,-709.31 681.54,-733.58"/>
<polygon fill="black" stroke="black" points="679.98,-736.71 690.47,-738.23 683.22,-730.5 679.98,-736.71"/>
<text text-anchor="middle" x="541.86" y="-687.51" font-family="Helvetica,sans-Serif" font-size="14.00">stok keluar</text>
</g>
<!-- uc_pembelian -->
<g id="node6" class="node">
<title>uc_pembelian</title>
<ellipse fill="none" stroke="black" cx="346.18" cy="-836.71" rx="84.49" ry="18"/>
<text text-anchor="middle" x="346.18" y="-833.01" font-family="Helvetica,sans-Serif" font-size="14.00">Input Pembelian</text>
</g>
<!-- uc_hutang -->
<g id="node8" class="node">
<title>uc_hutang</title>
<ellipse fill="none" stroke="black" cx="723.85" cy="-489.71" rx="73.39" ry="18"/>
<text text-anchor="middle" x="723.85" y="-486.01" font-family="Helvetica,sans-Serif" font-size="14.00">Kelola Hutang</text>
</g>
<!-- uc_pembelian&#45;&gt;uc_hutang -->
<g id="edge29" class="edge">
<title>uc_pembelian&#45;&gt;uc_hutang</title>
<path fill="none" stroke="black" stroke-dasharray="5,2" d="M430.7,-836.94C450.54,-832.88 469.85,-824.79 483.36,-809.71 514.32,-775.16 475.37,-640.14 501.36,-601.71 537.29,-548.55 606.36,-519.34 657.86,-504.2"/>
<polygon fill="black" stroke="black" points="658.91,-507.54 667.58,-501.45 657.01,-500.81 658.91,-507.54"/>
<text text-anchor="middle" x="541.86" y="-605.51" font-family="Helvetica,sans-Serif" font-size="14.00">jika hutang</text>
</g>
<!-- uc_pembelian&#45;&gt;uc_kas -->
<g id="edge31" class="edge">
<title>uc_pembelian&#45;&gt;uc_kas</title>
<path fill="none" stroke="black" stroke-dasharray="5,2" d="M429.39,-833.32C448.67,-829.21 468.04,-822 483.36,-809.71 498.88,-797.25 488.57,-783.96 501.36,-768.71 528.17,-736.73 627.23,-676.3 683.37,-643.41"/>
<polygon fill="black" stroke="black" points="685.45,-646.25 692.33,-638.19 681.92,-640.2 685.45,-646.25"/>
<text text-anchor="middle" x="541.86" y="-772.51" font-family="Helvetica,sans-Serif" font-size="14.00">jika tunai</text>
</g>
<!-- uc_pembelian&#45;&gt;uc_stok -->
<g id="edge33" class="edge">
<title>uc_pembelian&#45;&gt;uc_stok</title>
<path fill="none" stroke="black" stroke-dasharray="5,2" d="M409.62,-824.68C432.8,-820.12 459.31,-814.8 483.36,-809.71 538.44,-798.04 600.45,-784.03 647.56,-773.21"/>
<polygon fill="black" stroke="black" points="648.42,-776.6 657.38,-770.95 646.85,-769.78 648.42,-776.6"/>
<text text-anchor="middle" x="541.86" y="-808.51" font-family="Helvetica,sans-Serif" font-size="14.00">stok masuk</text>
</g>
<!-- uc_bayar_piutang -->
<g id="node9" class="node">
<title>uc_bayar_piutang</title>
<ellipse fill="none" stroke="black" cx="346.18" cy="-512.71" rx="104.78" ry="18"/>
<text text-anchor="middle" x="346.18" y="-509.01" font-family="Helvetica,sans-Serif" font-size="14.00">Pembayaran Piutang</text>
</g>
<!-- uc_bayar_hutang -->
<g id="node10" class="node">
<title>uc_bayar_hutang</title>
<ellipse fill="none" stroke="black" cx="346.18" cy="-204.71" rx="103.18" ry="18"/>
<text text-anchor="middle" x="346.18" y="-201.01" font-family="Helvetica,sans-Serif" font-size="14.00">Pembayaran Hutang</text>
</g>
<!-- uc_dashboard -->
<g id="node13" class="node">
<title>uc_dashboard</title>
<ellipse fill="none" stroke="black" cx="346.18" cy="-566.71" rx="84.49" ry="18"/>
<text text-anchor="middle" x="346.18" y="-563.01" font-family="Helvetica,sans-Serif" font-size="14.00">Lihat Dashboard</text>
</g>
<!-- uc_laporan -->
<g id="node14" class="node">
<title>uc_laporan</title>
<ellipse fill="none" stroke="black" cx="346.18" cy="-404.71" rx="106.68" ry="18"/>
<text text-anchor="middle" x="346.18" y="-401.01" font-family="Helvetica,sans-Serif" font-size="14.00">Lihat / Cetak Laporan</text>
</g>
<!-- uc_audit -->
<g id="node15" class="node">
<title>uc_audit</title>
<ellipse fill="none" stroke="black" cx="346.18" cy="-782.71" rx="78.79" ry="18"/>
<text text-anchor="middle" x="346.18" y="-779.01" font-family="Helvetica,sans-Serif" font-size="14.00">Lihat Audit Log</text>
</g>
<!-- uc_export -->
<g id="node16" class="node">
<title>uc_export</title>
<ellipse fill="none" stroke="black" cx="346.18" cy="-350.71" rx="106.68" ry="18"/>
<text text-anchor="middle" x="346.18" y="-347.01" font-family="Helvetica,sans-Serif" font-size="14.00">Export / Backup Data</text>
</g>
<!-- superadmin -->
<g id="node17" class="node">
<title>superadmin</title>
<path fill="#e0f2fe" stroke="black" d="M127.5,-571.71C127.5,-571.71 44.5,-571.71 44.5,-571.71 38.5,-571.71 32.5,-565.71 32.5,-559.71 32.5,-559.71 32.5,-547.71 32.5,-547.71 32.5,-541.71 38.5,-535.71 44.5,-535.71 44.5,-535.71 127.5,-535.71 127.5,-535.71 133.5,-535.71 139.5,-541.71 139.5,-547.71 139.5,-547.71 139.5,-559.71 139.5,-559.71 139.5,-565.71 133.5,-571.71 127.5,-571.71"/>
<text text-anchor="middle" x="86" y="-550.01" font-family="Helvetica,sans-Serif" font-size="14.00">Super Admin</text>
</g>
<!-- superadmin&#45;&gt;uc_login -->
<g id="edge1" class="edge">
<title>superadmin&#45;&gt;uc_login</title>
<path fill="none" stroke="black" d="M95.35,-571.73C111.11,-603.58 148.46,-669.51 201,-701.71 219.37,-712.97 241.34,-719.73 262.53,-723.74"/>
<polygon fill="black" stroke="black" points="262.08,-727.22 272.53,-725.45 263.26,-720.32 262.08,-727.22"/>
</g>
<!-- superadmin&#45;&gt;uc_kelola_umkm -->
<g id="edge2" class="edge">
<title>superadmin&#45;&gt;uc_kelola_umkm</title>
<path fill="none" stroke="black" d="M103.22,-571.77C123.75,-593.43 161.26,-629.13 201,-647.71 217.25,-655.31 235.48,-660.77 253.36,-664.69"/>
<polygon fill="black" stroke="black" points="252.75,-668.14 263.25,-666.72 254.16,-661.28 252.75,-668.14"/>
</g>
<!-- superadmin&#45;&gt;uc_kelola_user -->
<g id="edge3" class="edge">
<title>superadmin&#45;&gt;uc_kelola_user</title>
<path fill="none" stroke="black" d="M139.73,-543.65C157.98,-537.85 177.28,-528.8 191,-514.71 200.51,-504.94 190.68,-494.61 201,-485.71 208.52,-479.22 217.09,-474.08 226.23,-470.03"/>
<polygon fill="black" stroke="black" points="227.53,-473.28 235.53,-466.34 224.94,-466.78 227.53,-473.28"/>
</g>
<!-- superadmin&#45;&gt;uc_dashboard -->
<g id="edge4" class="edge">
<title>superadmin&#45;&gt;uc_dashboard</title>
<path fill="none" stroke="black" d="M139.56,-556.35C172.31,-558 215.35,-560.17 253.59,-562.1"/>
<polygon fill="black" stroke="black" points="253.55,-565.6 263.71,-562.61 253.9,-558.61 253.55,-565.6"/>
</g>
<!-- superadmin&#45;&gt;uc_laporan -->
<g id="edge5" class="edge">
<title>superadmin&#45;&gt;uc_laporan</title>
<path fill="none" stroke="black" d="M133.66,-535.63C154.38,-525.25 177.16,-510.16 191,-489.71 205.66,-468.04 182.64,-450.34 201,-431.71 209.66,-422.92 220.2,-416.5 231.61,-411.85"/>
<polygon fill="black" stroke="black" points="233.14,-415.02 241.37,-408.35 230.78,-408.43 233.14,-415.02"/>
</g>
<!-- superadmin&#45;&gt;uc_audit -->
<g id="edge6" class="edge">
<title>superadmin&#45;&gt;uc_audit</title>
<path fill="none" stroke="black" d="M97.64,-571.84C113.9,-599.65 145.81,-654.57 172,-701.71 185.23,-725.52 179.01,-739.62 201,-755.71 217.52,-767.79 237.87,-774.95 258.02,-779.08"/>
<polygon fill="black" stroke="black" points="257.42,-782.53 267.88,-780.87 258.67,-775.64 257.42,-782.53"/>
</g>
<!-- superadmin&#45;&gt;uc_export -->
<g id="edge7" class="edge">
<title>superadmin&#45;&gt;uc_export</title>
<path fill="none" stroke="black" d="M93.19,-535.51C106.57,-499.08 141.88,-417.34 201,-377.71 212.23,-370.18 225.01,-364.61 238.21,-360.51"/>
<polygon fill="black" stroke="black" points="239.21,-363.87 247.88,-357.78 237.3,-357.13 239.21,-363.87"/>
</g>
<!-- adminumkm -->
<g id="node18" class="node">
<title>adminumkm</title>
<path fill="#dcfce7" stroke="black" d="M160,-359.71C160,-359.71 12,-359.71 12,-359.71 6,-359.71 0,-353.71 0,-347.71 0,-347.71 0,-335.71 0,-335.71 0,-329.71 6,-323.71 12,-323.71 12,-323.71 160,-323.71 160,-323.71 166,-323.71 172,-329.71 172,-335.71 172,-335.71 172,-347.71 172,-347.71 172,-353.71 166,-359.71 160,-359.71"/>
<text text-anchor="middle" x="86" y="-338.01" font-family="Helvetica,sans-Serif" font-size="14.00">Admin UMKM / Pemilik</text>
</g>
<!-- adminumkm&#45;&gt;uc_login -->
<g id="edge8" class="edge">
<title>adminumkm&#45;&gt;uc_login</title>
<path fill="none" stroke="black" d="M96.98,-359.79C114.54,-392.29 151.04,-463.09 172,-526.71 184.93,-565.95 184.33,-576.93 191,-617.71 194.04,-636.26 188.16,-687.98 201,-701.71 216.84,-718.64 239.64,-726.94 262.45,-730.61"/>
<polygon fill="black" stroke="black" points="262.19,-734.11 272.56,-731.95 263.11,-727.17 262.19,-734.11"/>
</g>
<!-- adminumkm&#45;&gt;uc_kelola_user -->
<g id="edge21" class="edge">
<title>adminumkm&#45;&gt;uc_kelola_user</title>
<path fill="none" stroke="black" d="M145.44,-359.76C162.25,-367.5 179.2,-378.2 191,-392.71 202.29,-406.59 187.94,-419.48 201,-431.71 208.04,-438.3 216.14,-443.53 224.85,-447.66"/>
<polygon fill="black" stroke="black" points="223.55,-450.91 234.13,-451.57 226.28,-444.46 223.55,-450.91"/>
</g>
<!-- adminumkm&#45;&gt;uc_kelola_master -->
<g id="edge10" class="edge">
<title>adminumkm&#45;&gt;uc_kelola_master</title>
<path fill="none" stroke="black" d="M159.95,-323.62C182.99,-317.91 208.98,-311.47 234.06,-305.25"/>
<polygon fill="black" stroke="black" points="235.13,-308.6 243.99,-302.79 233.44,-301.8 235.13,-308.6"/>
</g>
<!-- adminumkm&#45;&gt;uc_penjualan -->
<g id="edge11" class="edge">
<title>adminumkm&#45;&gt;uc_penjualan</title>
<path fill="none" stroke="black" d="M95.46,-359.77C110.89,-392.8 144.57,-465.21 172,-526.71 185.22,-556.34 175.64,-573.46 201,-593.71 216.41,-606.01 235.68,-613.34 255.08,-617.58"/>
<polygon fill="black" stroke="black" points="254.42,-621.02 264.9,-619.47 255.74,-614.14 254.42,-621.02"/>
</g>
<!-- adminumkm&#45;&gt;uc_pembelian -->
<g id="edge12" class="edge">
<title>adminumkm&#45;&gt;uc_pembelian</title>
<path fill="none" stroke="black" d="M97.81,-359.85C116.46,-392.14 154.41,-462.26 172,-526.71 188.64,-587.7 158.19,-763.19 201,-809.71 214.29,-824.15 232.64,-832.34 251.81,-836.74"/>
<polygon fill="black" stroke="black" points="251.4,-840.23 261.88,-838.71 252.74,-833.36 251.4,-840.23"/>
</g>
<!-- adminumkm&#45;&gt;uc_piutang -->
<g id="edge13" class="edge">
<title>adminumkm&#45;&gt;uc_piutang</title>
<path fill="none" stroke="black" d="M87.34,-323.57C89.37,-272.78 102.92,-128.93 190,-68.71 333.43,30.47 428.81,13.95 582.36,-68.71 656.13,-108.42 697.57,-205.71 714.2,-253.82"/>
<polygon fill="black" stroke="black" points="710.97,-255.21 717.46,-263.58 717.61,-252.99 710.97,-255.21"/>
</g>
<!-- adminumkm&#45;&gt;uc_hutang -->
<g id="edge14" class="edge">
<title>adminumkm&#45;&gt;uc_hutang</title>
<path fill="none" stroke="black" d="M88.53,-323.39C93.49,-277.31 113.56,-156.67 190,-106.71 262.99,-59.01 518.03,-47.85 582.36,-106.71 615.61,-137.13 585.25,-266.25 600.36,-308.71 622.29,-370.33 670.23,-431.04 699.2,-464.12"/>
<polygon fill="black" stroke="black" points="696.87,-466.77 706.13,-471.92 702.11,-462.12 696.87,-466.77"/>
</g>
<!-- adminumkm&#45;&gt;uc_bayar_piutang -->
<g id="edge15" class="edge">
<title>adminumkm&#45;&gt;uc_bayar_piutang</title>
<path fill="none" stroke="black" d="M125.31,-359.85C148.16,-372.72 175.64,-392.24 191,-417.71 206.78,-443.86 179.83,-463.69 201,-485.71 209.91,-494.98 220.92,-501.64 232.85,-506.37"/>
<polygon fill="black" stroke="black" points="232,-509.77 242.59,-509.75 234.3,-503.16 232,-509.77"/>
</g>
<!-- adminumkm&#45;&gt;uc_bayar_hutang -->
<g id="edge16" class="edge">
<title>adminumkm&#45;&gt;uc_bayar_hutang</title>
<path fill="none" stroke="black" d="M100.18,-323.55C119.37,-298.57 157.49,-254.16 201,-231.71 214.55,-224.72 229.65,-219.52 244.84,-215.66"/>
<polygon fill="black" stroke="black" points="245.88,-219.01 254.81,-213.31 244.28,-212.19 245.88,-219.01"/>
</g>
<!-- adminumkm&#45;&gt;uc_kas -->
<g id="edge17" class="edge">
<title>adminumkm&#45;&gt;uc_kas</title>
<path fill="none" stroke="black" d="M90.09,-323.6C98.12,-282.93 123.81,-184.79 190,-144.71 264.58,-99.54 519.23,-84.56 582.36,-144.71 612.32,-173.25 582.08,-479.58 600.36,-516.71 617.78,-552.09 653.32,-580.11 681.65,-598.11"/>
<polygon fill="black" stroke="black" points="679.83,-601.1 690.18,-603.37 683.5,-595.14 679.83,-601.1"/>
</g>
<!-- adminumkm&#45;&gt;uc_stok -->
<g id="edge18" class="edge">
<title>adminumkm&#45;&gt;uc_stok</title>
<path fill="none" stroke="black" d="M93.13,-323.55C106.3,-287.79 141.08,-209.03 201,-177.71 256.61,-148.64 429.74,-145.11 483.36,-177.71 565.06,-227.38 556.73,-276.59 582.36,-368.71 599.01,-428.56 572.98,-591.94 600.36,-647.71 618.3,-684.27 654.67,-713.8 683.14,-732.68"/>
<polygon fill="black" stroke="black" points="681.39,-735.72 691.69,-738.2 685.19,-729.84 681.39,-735.72"/>
</g>
<!-- adminumkm&#45;&gt;uc_dashboard -->
<g id="edge9" class="edge">
<title>adminumkm&#45;&gt;uc_dashboard</title>
<path fill="none" stroke="black" d="M114.37,-359.73C139,-377.6 173.87,-407.38 191,-442.71 200.45,-462.21 186.32,-523.77 201,-539.71 214.29,-554.15 232.65,-562.34 251.82,-566.74"/>
<polygon fill="black" stroke="black" points="251.4,-570.22 261.89,-568.7 252.75,-563.35 251.4,-570.22"/>
</g>
<!-- adminumkm&#45;&gt;uc_laporan -->
<g id="edge19" class="edge">
<title>adminumkm&#45;&gt;uc_laporan</title>
<path fill="none" stroke="black" d="M172.22,-358.89C178.75,-361.44 185.09,-364.36 191,-367.71 196.47,-370.8 195.44,-374.78 201,-377.71 213.9,-384.51 228.25,-389.62 242.75,-393.46"/>
<polygon fill="black" stroke="black" points="242.25,-396.94 252.8,-395.91 243.91,-390.14 242.25,-396.94"/>
</g>
<!-- adminumkm&#45;&gt;uc_export -->
<g id="edge20" class="edge">
<title>adminumkm&#45;&gt;uc_export</title>
<path fill="none" stroke="black" d="M172.14,-342.23C178.52,-342.36 184.86,-342.52 191,-342.71 205.26,-343.15 220.25,-343.75 235.06,-344.43"/>
<polygon fill="black" stroke="black" points="235.11,-347.93 245.27,-344.91 235.44,-340.94 235.11,-347.93"/>
</g>
<!-- operator -->
<g id="node19" class="node">
<title>operator</title>
<path fill="#fef3c7" stroke="black" d="M137.5,-746.71C137.5,-746.71 34.5,-746.71 34.5,-746.71 28.5,-746.71 22.5,-740.71 22.5,-734.71 22.5,-734.71 22.5,-722.71 22.5,-722.71 22.5,-716.71 28.5,-710.71 34.5,-710.71 34.5,-710.71 137.5,-710.71 137.5,-710.71 143.5,-710.71 149.5,-716.71 149.5,-722.71 149.5,-722.71 149.5,-734.71 149.5,-734.71 149.5,-740.71 143.5,-746.71 137.5,-746.71"/>
<text text-anchor="middle" x="86" y="-725.01" font-family="Helvetica,sans-Serif" font-size="14.00">Operator / Kasir</text>
</g>
<!-- operator&#45;&gt;uc_login -->
<g id="edge22" class="edge">
<title>operator&#45;&gt;uc_login</title>
<path fill="none" stroke="black" d="M149.55,-736.46C162.88,-737.82 176.89,-739.01 190,-739.71 215.84,-741.08 244.07,-739.89 269.28,-737.86"/>
<polygon fill="black" stroke="black" points="269.86,-741.32 279.52,-736.97 269.26,-734.35 269.86,-741.32"/>
</g>
<!-- operator&#45;&gt;uc_penjualan -->
<g id="edge24" class="edge">
<title>operator&#45;&gt;uc_penjualan</title>
<path fill="none" stroke="black" d="M149.7,-716.2C165.05,-710.43 180.16,-702 191,-689.71 203.69,-675.32 187.11,-660.94 201,-647.71 215.59,-633.81 234.94,-625.92 254.71,-621.66"/>
<polygon fill="black" stroke="black" points="255.55,-625.06 264.74,-619.8 254.27,-618.18 255.55,-625.06"/>
</g>
<!-- operator&#45;&gt;uc_pembelian -->
<g id="edge25" class="edge">
<title>operator&#45;&gt;uc_pembelian</title>
<path fill="none" stroke="black" d="M106.78,-746.89C128.32,-765.63 164.57,-794.24 201,-809.71 219.35,-817.5 239.96,-823.05 259.73,-827"/>
<polygon fill="black" stroke="black" points="259.18,-830.46 269.66,-828.87 260.48,-823.58 259.18,-830.46"/>
</g>
<!-- operator&#45;&gt;uc_bayar_piutang -->
<g id="edge26" class="edge">
<title>operator&#45;&gt;uc_bayar_piutang</title>
<path fill="none" stroke="black" d="M97.42,-710.54C124.02,-664.29 192.89,-545.33 201,-539.71 212.28,-531.88 225.2,-526.15 238.58,-521.99"/>
<polygon fill="black" stroke="black" points="239.71,-525.31 248.38,-519.22 237.81,-518.57 239.71,-525.31"/>
</g>
<!-- operator&#45;&gt;uc_stok -->
<g id="edge27" class="edge">
<title>operator&#45;&gt;uc_stok</title>
<path fill="none" stroke="black" d="M95.79,-747.08C111.73,-778 148.69,-839.42 201,-863.71 370.58,-942.46 597.64,-829.56 685.74,-778.53"/>
<polygon fill="black" stroke="black" points="687.71,-781.43 694.56,-773.36 684.16,-775.4 687.71,-781.43"/>
</g>
<!-- operator&#45;&gt;uc_dashboard -->
<g id="edge23" class="edge">
<title>operator&#45;&gt;uc_dashboard</title>
<path fill="none" stroke="black" d="M134.21,-710.68C154.92,-700.35 177.53,-685.28 191,-664.71 208.45,-638.04 178.98,-616.74 201,-593.71 214.49,-579.6 232.82,-571.52 251.89,-567.12"/>
<polygon fill="black" stroke="black" points="252.77,-570.51 261.91,-565.14 251.42,-563.65 252.77,-570.51"/>
</g>
</g>
</svg>
